<svg width="38" height="20" viewBox="0 0 38 20" fill="none" xmlns="http://www.w3.org/2000/svg">
<path d="M12.351 4.78914C7.2832 3.56992 3.74159 6.46721 1.56313 3.2094C1.55661 3.19627 1.55009 3.18972 1.54357 3.17661C1.48487 3.08485 1.56313 2.95375 1.66748 2.97996C6.15484 4.05499 6.88535 3.38637 8.7703 3.61579C10.5117 3.82555 12.351 4.78914 12.351 4.78914Z" fill="white"/>
<path d="M13.2481 5.60757C8.78675 4.94553 5.62342 8.2951 3.23625 5.71901C3.22973 5.71246 3.22321 5.69935 3.21016 5.6928C3.14494 5.62069 3.1906 5.48959 3.28842 5.49615C7.36489 5.79767 8.32366 5.07663 9.99998 5.00452C11.5652 4.93897 13.2481 5.60757 13.2481 5.60757Z" fill="white"/>
<path d="M14.0739 6.6633C10.18 6.13235 8.51036 9.6458 5.35355 7.49578C5.34703 7.48923 5.34051 7.48267 5.32747 7.46957C5.26225 7.41057 5.28181 7.24015 5.37312 7.24015C8.82343 7.2467 9.7235 6.44043 11.1781 6.26346C13.1478 6.02746 14.0739 6.6633 14.0739 6.6633Z" fill="white"/>
<path d="M15.8337 7.82319C13.7988 8.03951 14.1184 9.67824 11.8878 9.31117C11.5943 9.26528 11.6595 9.05552 11.79 9.0162C13.6619 8.47868 13.6619 8.11816 14.3337 7.84941C14.9729 7.60688 15.8337 7.82319 15.8337 7.82319Z" fill="white"/>
<path d="M14.9143 7.32104C11.9793 7.38004 11.2293 9.49729 8.75728 8.80902C8.37898 8.70413 8.50943 8.41571 8.71163 8.3895C11.5424 7.93721 11.6792 7.51769 12.7293 7.2686C13.7142 7.03262 14.9143 7.32104 14.9143 7.32104Z" fill="white"/>
<path d="M13.2342 4.78319C13.2146 4.81596 13.169 4.82251 13.1364 4.80941C12.5298 4.46199 11.9624 4.05558 11.3102 3.60985C10.6971 3.19688 9.37955 2.63316 6.64018 2.76426C5.33571 2.82981 3.35293 3.09857 1.30492 1.68925C0.809219 1.35494 0.306999 0.784659 0.0461053 0.253716C0.0200178 0.207825 0.0069742 0.148827 0.000452313 0.0898293C-0.00606957 0.0308317 0.0591488 -0.0150414 0.117864 0.00461851C5.18571 2.04977 6.63365 1.25007 9.82307 1.99077C11.134 2.29887 12.7581 4.21291 13.2278 4.69141C13.2538 4.71109 13.2538 4.75041 13.2342 4.78319Z" fill="white"/>
<path d="M17.6445 15.9937C17.5857 16.1771 17.5987 16.3935 17.4814 16.5508C17.3378 16.7606 16.9857 16.7803 16.8161 16.5901C16.7052 16.4919 16.7052 16.3346 16.666 16.2099C16.4117 15.0891 16.1639 13.968 15.916 12.8406C15.89 12.762 15.916 12.7095 15.9942 12.6769C16.1183 12.644 16.1313 12.7817 16.1703 12.8604C16.4508 13.6273 16.7116 14.4007 16.9987 15.1676C17.0899 15.43 17.3966 15.3446 17.5987 15.4103C17.8139 15.5478 17.6835 15.8035 17.6445 15.9937Z" fill="white"/>
<path d="M17.9768 12.8993C18.003 12.9715 17.9638 13.0567 17.8856 13.0697C17.84 13.0763 17.8007 13.0697 17.7877 13.0042C17.5985 12.624 17.4355 12.2242 17.2398 11.844C16.9855 11.6276 16.718 11.4048 16.5616 11.0967C16.2811 10.5985 16.3071 9.94958 16.6202 9.47107C16.6462 9.43828 16.6658 9.39896 16.692 9.36618C16.7376 9.30064 16.8355 9.31375 16.8615 9.39241C16.8811 9.45141 16.8941 9.51039 16.9203 9.56283C17.2724 10.6706 17.6117 11.7915 17.9768 12.8993Z" fill="white"/>
<path d="M18.0304 7.62085C18.0174 7.91582 17.9065 8.19113 17.8346 8.47299C17.828 8.49265 17.8216 8.50576 17.8019 8.51231C17.7563 8.53199 17.7106 8.4992 17.7106 8.45333C17.7171 8.06658 17.8542 7.6864 17.7563 7.3062C17.6127 6.78836 17.2601 6.33608 17.2341 5.78546C17.2209 5.49704 17.2927 5.21518 17.3516 4.93331C17.1426 4.49413 17.0447 3.98939 17.1556 3.51089C17.1752 3.45189 17.1818 3.45189 17.2145 3.49776C17.4169 3.79275 17.6844 4.08772 17.6844 4.47446C17.6584 5.02508 17.358 5.5757 17.5605 6.12632C17.7237 6.61794 18.0761 7.07678 18.0304 7.62085Z" fill="white"/>
<path d="M19.7534 5.71893C19.7404 6.43997 19.1142 7.0168 19.186 7.75097C19.186 8.03284 19.2577 8.32125 19.2251 8.60312C19.1795 8.8522 18.899 8.89153 18.6969 8.95053C18.5795 9.00297 18.449 8.86532 18.4816 8.74732C18.4816 7.89518 18.4816 7.03648 18.4816 6.18434C18.4947 5.83037 18.5795 5.45672 18.8207 5.18798C18.9708 5.01099 19.1272 4.83402 19.2903 4.65702C19.3229 4.61769 19.3425 4.57181 19.3361 4.52592C19.3229 4.36861 19.2903 4.23095 19.3621 4.04741C19.4729 3.81799 19.6166 3.68033 19.7664 3.52957C19.7926 3.50336 19.8316 3.51646 19.8382 3.54923C19.9427 4.01464 19.8382 4.51937 19.623 4.93889C19.6752 5.18798 19.7534 5.45017 19.7534 5.71893Z" fill="white"/>
<path d="M27.9868 3.08643C27.0998 3.33551 26.6889 3.63704 26.3367 3.9189C26.3367 3.9189 27.139 3.63704 28.2933 3.51251C31.5676 3.15198 31.7567 4.37776 35.4223 2.95533C35.5461 2.93567 35.5788 3.03399 35.5461 3.08643C35.057 3.93858 34.5156 4.88249 32.4677 4.9677C30.237 5.05948 29.0761 4.16144 26.9823 4.4302C25.6454 4.60062 24.954 5.02014 24.5691 5.27579C29.1347 4.39742 28.7564 6.41635 33.2307 5.34134C33.2829 5.32822 33.3417 5.31511 33.3939 5.32166C33.5112 5.33477 33.557 5.479 33.4852 5.55766C33.4525 5.59698 33.4069 5.63631 33.3743 5.67563C32.7873 6.31146 32.1676 7.00629 30.0804 6.84898C27.6281 6.66543 27.4717 5.13814 22.7886 6.30491C27.328 6.28525 27.2498 7.77978 30.6676 7.33405C30.785 7.32094 30.8566 7.46515 30.7654 7.54381C30.7132 7.58968 30.6544 7.62902 30.6088 7.66836C30.0936 8.07475 29.3434 8.57293 27.9346 8.28451C24.9996 7.66836 25.3715 6.44912 21.595 7.11774C24.5365 7.19639 24.3344 8.34351 27.3542 8.62537C27.3542 8.62537 27.3542 8.62537 27.3606 8.62537C27.5237 8.64503 27.5695 8.86134 27.4325 8.95313C27.328 9.02523 27.2106 9.07766 27.0998 9.12355C24.8953 9.98224 23.8713 7.20295 21.1645 7.82567C23.1016 7.99609 22.945 8.65158 24.6931 9.1301C24.8821 9.18255 24.8627 9.4382 24.6539 9.45786C22.5799 9.66761 22.7625 8.26485 21.4906 8.21241C21.1515 8.1993 20.8384 8.38285 20.6688 8.68437C20.1666 9.56273 20.3687 10.3952 20.3361 10.8475C20.4535 11.3195 20.6297 11.7784 20.6362 12.2764C20.6427 12.6239 20.6101 12.9844 20.4991 13.3187C20.2905 14.0135 20.0818 14.7084 19.8665 15.4098C19.8209 15.5539 19.8273 15.7113 19.8795 15.8489C19.9578 16.0588 20.0362 16.262 20.0688 16.4848C20.147 16.8584 20.0948 17.2451 19.9644 17.6057C19.6905 18.2808 19.4164 18.956 19.1425 19.6377C19.0903 19.7622 19.0513 19.8934 18.9599 19.9982C18.823 20.0245 18.836 19.8475 18.849 19.7622C19.1165 17.2385 19.3708 14.7149 19.6317 12.1912L19.8405 11.5882C19.4296 11.9421 19.247 12.4337 18.9795 12.873C18.9469 12.9778 18.7904 12.9974 18.7578 12.8796C18.7838 12.4403 18.8425 12.0012 18.8556 11.562C18.8947 11.1163 18.8883 10.664 19.0383 10.2379C19.2078 9.80527 19.5338 9.45786 19.7883 9.08423C20.2056 8.54671 20.5187 7.9371 20.734 7.29471C20.8644 6.90142 21.1385 6.55401 21.4906 6.3377C22.7103 5.56421 23.4211 4.89559 24.5757 4.01724C25.6388 3.21096 26.4606 2.58169 26.9303 2.3916C29.0761 1.50668 33.3873 2.45715 37.079 0.0449305C37.1702 -0.00751378 37.2876 0.0973572 37.216 0.248119C36.8703 1.12649 36.4594 1.69022 35.4809 2.17529C32.6633 3.5715 29.4282 2.68002 27.9868 3.08643Z" fill="white"/>
<path d="M19.4271 4.59834C19.4271 4.59834 19.1857 4.17227 18.5987 4.11982C18.1552 4.0805 17.9531 4.23127 17.9531 4.23127C17.9531 4.23127 18.4879 4.07395 18.9054 4.44758C19.3227 4.82121 19.0945 5.14241 19.0945 5.14241C19.0945 5.14241 19.551 4.87365 19.4271 4.59834Z" fill="white"/>
<path d="M19.4023 4.54147C19.4023 4.54147 19.0955 4.21373 18.4688 4.1875C18.4688 4.1875 18.8408 4.27926 18.8866 4.48247C18.9649 4.86922 18.6255 5.38706 18.5602 5.63616C18.508 5.85902 19.4023 4.54147 19.4023 4.54147Z" fill="white"/>
</svg>
