<svg width="15" height="15" viewBox="0 0 15 15" fill="none" xmlns="http://www.w3.org/2000/svg">
<path d="M5.06287 9.93848L9.9382 5.06308M6.68798 2.62538L7.06419 2.18985C7.82621 1.42792 8.85969 0.999924 9.93727 1C11.0148 1.00008 12.0483 1.42822 12.8102 2.19025C13.5721 2.95228 14.0001 3.98577 14 5.06337C13.9999 6.14097 13.5718 7.1744 12.8098 7.93632L12.3759 8.31335M8.31311 12.3762L7.99052 12.8101C7.21961 13.5724 6.17917 14 5.09498 14C4.0108 14 2.97036 13.5724 2.19945 12.8101C1.81946 12.4344 1.51779 11.987 1.3119 11.4939C1.10601 11.0007 1 10.4716 1 9.93726C1 9.40288 1.10601 8.8738 1.3119 8.38068C1.51779 7.88755 1.81946 7.44016 2.19945 7.06443L2.62522 6.68822" stroke="white" stroke-opacity="0.9" stroke-linecap="round" stroke-linejoin="round"/>
</svg>
