<svg width="20" height="20" viewBox="0 0 20 20" fill="none" xmlns="http://www.w3.org/2000/svg">
<g clip-path="url(#clip0_132_379)">
<path d="M10 20C15.5228 20 20 15.5228 20 10C20 4.47715 15.5228 0 10 0C4.47715 0 0 4.47715 0 10C0 15.5228 4.47715 20 10 20Z" fill="url(#paint0_linear_132_379)"/>
<path fill-rule="evenodd" clip-rule="evenodd" d="M4.52684 9.89443C7.44204 8.62432 9.38597 7.78699 10.3586 7.38243C13.1357 6.22734 13.7128 6.02669 14.0889 6.02006C14.1716 6.0186 14.3566 6.0391 14.4764 6.13632C14.5776 6.21841 14.6054 6.3293 14.6187 6.40713C14.632 6.48497 14.6486 6.66226 14.6354 6.8008C14.485 8.38204 13.8338 12.2193 13.5025 13.9903C13.3623 14.7397 13.0863 14.9909 12.8191 15.0155C12.2384 15.069 11.7974 14.6317 11.2349 14.263C10.3548 13.6861 9.85759 13.327 9.00328 12.764C8.01596 12.1134 8.656 11.7558 9.21866 11.1714C9.36592 11.0184 11.9246 8.69112 11.9741 8.47999C11.9803 8.45359 11.986 8.35517 11.9276 8.30319C11.8691 8.25122 11.7828 8.269 11.7205 8.28313C11.6322 8.30316 10.2262 9.23249 7.50246 11.0711C7.10337 11.3452 6.74188 11.4787 6.418 11.4717C6.06095 11.464 5.37413 11.2698 4.86355 11.1038C4.23729 10.9003 3.73956 10.7926 3.7829 10.4469C3.80548 10.2668 4.05346 10.0827 4.52684 9.89443Z" fill="white"/>
</g>
<defs>
<linearGradient id="paint0_linear_132_379" x1="10" y1="0" x2="10" y2="19.8517" gradientUnits="userSpaceOnUse">
<stop stop-color="#2AABEE"/>
<stop offset="1" stop-color="#229ED9"/>
</linearGradient>
<clipPath id="clip0_132_379">
<rect width="20" height="20" fill="white"/>
</clipPath>
</defs>
</svg>
