<svg width="24" height="26" viewBox="0 0 24 26" fill="none" xmlns="http://www.w3.org/2000/svg">
<path d="M19 3.25H5C3.9 3.25 3 4.225 3 5.41667V20.5833C3 21.775 3.9 22.75 5 22.75H19C20.1 22.75 21 21.775 21 20.5833V5.41667C21 4.225 20.1 3.25 19 3.25ZM18 20.5833H6C5.45 20.5833 5 20.0958 5 19.5V6.5C5 5.90417 5.45 5.41667 6 5.41667H18C18.55 5.41667 19 5.90417 19 6.5V19.5C19 20.0958 18.55 20.5833 18 20.5833Z" fill="black"/>
<rect x="4" y="5" width="16" height="16" fill="black"/>
<path d="M7.08835 18.131L9.38255 15.43L11.3217 13.1491M16.2651 7.327L12.3003 11.9794M16.0438 18.131H15.1217L6.88086 7.327H7.82635H8.77184L16.9659 18.131H16.0438Z" stroke="white" stroke-width="2" stroke-linecap="round" stroke-linejoin="round"/>
</svg>
