<svg width="24" height="24" viewBox="0 0 24 24" fill="none" xmlns="http://www.w3.org/2000/svg">
<path d="M19 3H5C3.9 3 3 3.9 3 5V19C3 20.1 3.9 21 5 21H19C20.1 21 21 20.1 21 19V5C21 3.9 20.1 3 19 3ZM18 19H6C5.45 19 5 18.55 5 18V6C5 5.45 5.45 5 6 5H18C18.55 5 19 5.45 19 6V18C19 18.55 18.55 19 18 19Z" fill="black"/>
<rect x="4" y="4" width="16" height="16" fill="black"/>
<path d="M6.59738 17.6441L9.121 14.673L11.2541 12.164M16.6918 5.75967L12.3305 10.8773M16.4484 17.6441H15.4341L6.36914 5.75967H7.40918H8.44922L17.4627 17.6441H16.4484Z" stroke="white" stroke-width="2" stroke-linecap="round" stroke-linejoin="round"/>
</svg>
