<svg width="24" height="25" viewBox="0 0 24 25" fill="none" xmlns="http://www.w3.org/2000/svg">
<path d="M3.6 9.3252H20.4M3.6 15.3252H20.4M11.5 3.3252C9.81534 6.02481 8.9222 9.14306 8.9222 12.3252C8.9222 15.5073 9.81534 18.6256 11.5 21.3252M12.5 3.3252C14.1847 6.02481 15.0778 9.14306 15.0778 12.3252C15.0778 15.5073 14.1847 18.6256 12.5 21.3252M3 12.3252C3 13.5071 3.23279 14.6774 3.68508 15.7693C4.13738 16.8613 4.80031 17.8534 5.63604 18.6892C6.47177 19.5249 7.46392 20.1878 8.55585 20.6401C9.64778 21.0924 10.8181 21.3252 12 21.3252C13.1819 21.3252 14.3522 21.0924 15.4442 20.6401C16.5361 20.1878 17.5282 19.5249 18.364 18.6892C19.1997 17.8534 19.8626 16.8613 20.3149 15.7693C20.7672 14.6774 21 13.5071 21 12.3252C21 9.93825 20.0518 7.64906 18.364 5.96123C16.6761 4.27341 14.3869 3.3252 12 3.3252C9.61305 3.3252 7.32387 4.27341 5.63604 5.96123C3.94821 7.64906 3 9.93825 3 12.3252Z" stroke="white" stroke-opacity="0.8" stroke-width="2" stroke-linecap="round" stroke-linejoin="round"/>
</svg>
